<?xml version="1.0" encoding="utf-8"?>
<!-- Generator: Adobe Illustrator 23.0.3, SVG Export Plug-In . SVG Version: 6.00 Build 0)  -->
<svg version="1.1" id="Capa_1" xmlns="http://www.w3.org/2000/svg" xmlns:xlink="http://www.w3.org/1999/xlink" x="0px" y="0px"
	 viewBox="0 0 612.7 612.7" style="enable-background:new 0 0 612.7 612.7;" xml:space="preserve">
<style type="text/css">
	.st0{fill:#6C757D;}
</style>
<g>
	<g id="_x34__17_">
		<g>
			<path class="st0" d="M581.2,223L269.8,530.9c-51.6,51-135.2,51-186.8,0c-51.6-51-51.6-133.7,0-184.8L363.2,69
				c34.4-34,90.1-34,124.6,0c34.4,34,34.4,89.2,0,123.2L207.6,469.3c-17.2,17-45.1,17-62.3,0c-17.2-17-17.2-44.6,0-61.6l249.1-246.3
				l-31.1-30.8L114.1,377c-34.4,34-34.4,89.2,0,123.2c34.4,34,90.2,34,124.6,0L518.9,223c51.6-51,51.6-133.7,0-184.8
				c-51.6-51-135.2-51-186.8,0L36.3,330.8l1.1,1.1c-53.7,68.3-49,167.1,14.5,229.9c63.5,62.8,163.4,67.5,232.5,14.3l1.1,1.1
				l326.9-323.3L581.2,223z"/>
		</g>
	</g>
</g>
</svg>
