<?xml version="1.0" encoding="utf-8"?>
<!-- Generator: Adobe Illustrator 23.0.3, SVG Export Plug-In . SVG Version: 6.00 Build 0)  -->
<svg version="1.1" id="Capa_1" xmlns="http://www.w3.org/2000/svg" xmlns:xlink="http://www.w3.org/1999/xlink" x="0px" y="0px"
	 viewBox="0 0 66.1 66.1" style="enable-background:new 0 0 66.1 66.1;" xml:space="preserve">
<style type="text/css">
	.st0{fill:#6C757D;}
</style>
<g>
	<g>
		<path class="st0" d="M33.1,66.1C14.8,66.1,0,51.3,0,33.1C0,14.8,14.8,0,33.1,0s33.1,14.8,33.1,33.1C66.1,51.3,51.3,66.1,33.1,66.1
			z M33.1,4C17,4,4,17,4,33.1c0,16,13,29.1,29.1,29.1s29.1-13,29.1-29.1C62.1,17,49.1,4,33.1,4z"/>
		<circle class="st0" cx="25.3" cy="25.6" r="4.3"/>
		<circle class="st0" cx="41.6" cy="25.6" r="4.3"/>
		<path class="st0" d="M33.4,48.4c-9.2,0-15-6.1-15.1-6.2l2.9-2.7c0.4,0.5,10.6,11.1,25.6-0.2l2.4,3.2C43.4,46.9,38,48.4,33.4,48.4z
			"/>
	</g>
</g>
</svg>
